<svg width="141.732" height="141.732" xmlns="http://www.w3.org/2000/svg">

 <g>
  <title>background</title>
  <rect fill="none" id="canvas_background" height="402" width="582" y="-1" x="-1"/>
 </g>
 <g>
  <title>Layer 1</title>
  <path fill="#ffffff" id="svg_1" d="m135.055,115.131c0,-3.528 -2.861,-6.396 -6.395,-6.396c-8.83,0 -15.988,-7.158 -15.988,-15.99l0,-38.378c0,-20.006 -14.209,-36.709 -33.139,-40.679c0.588,-1.242 0.928,-2.628 0.928,-4.095c0.001,-5.297 -4.296,-9.593 -9.595,-9.593c-5.299,0 -9.594,4.296 -9.594,9.598c0,1.467 0.339,2.853 0.927,4.095c-18.928,3.97 -33.137,20.673 -33.137,40.679l0,38.377c0,8.832 -7.159,15.99 -15.99,15.99c-3.533,0 -6.396,2.864 -6.396,6.396c0,3.531 2.862,6.396 6.396,6.396l15.99,0l29.011,0c0,9.716 5.729,17.591 12.793,17.591c7.064,0 12.792,-7.875 12.792,-17.591l29.014,0l15.988,0l0,0c3.534,-0.005 6.395,-2.867 6.395,-6.4"/>
 </g>
</svg>