<svg width="512" height="512" xmlns="http://www.w3.org/2000/svg">

 <g>
  <title>background</title>
  <rect fill="none" id="canvas_background" height="402" width="582" y="-1" x="-1"/>
 </g>
 <g>
  <title>Layer 1</title>
  <path fill="#ffffff" id="svg_2" d="m381.7,225.9c0,-97.6 -52.5,-130.8 -101.6,-138.2c0,-0.5 0.1,-1 0.1,-1.6c0,-12.3 -10.9,-22.1 -24.2,-22.1c-13.3,0 -23.8,9.8 -23.8,22.1c0,0.6 0,1.1 0.1,1.6c-49.2,7.5 -102,40.8 -102,138.4c0,113.8 -28.3,126 -66.3,158l384,0c-37.8,-32.1 -66.3,-44.4 -66.3,-158.2z"/>
  <path fill="#ffffff" id="svg_3" d="m256.2,448c26.8,0 48.8,-19.9 51.7,-43l-103.4,0c2.8,23.1 24.9,43 51.7,43z"/>
 </g>
</svg>