<?xml version="1.0" encoding="iso-8859-1"?>
<!-- Generator: Adobe Illustrator 18.1.1, SVG Export Plug-In . SVG Version: 6.00 Build 0)  -->
<svg version="1.1" id="Capa_1" xmlns="http://www.w3.org/2000/svg" xmlns:xlink="http://www.w3.org/1999/xlink" x="0px" y="0px"
	 viewBox="0 0 28.406 28.406" style="enable-background:new 0 0 28.406 28.406; fill: #fff;" xml:space="preserve">
<g>
	<g>
		<circle cx="13.679" cy="24.632" r="2.146"/>
		<circle cx="22.271" cy="24.632" r="2.146"/>
		<path d="M27.931,6.281c-0.47-0.472-1.395-0.457-1.395-0.457H7.648L7.024,3.221c-0.223-0.933-1.059-1.593-2.02-1.593H0l0.969,2.079
			l3.052-0.01c0.693-0.002,1.292,0.485,1.433,1.165l2.783,13.395c0.326,1.572,1.71,2.702,3.315,2.702c3.995,0,11.053,0,12.259,0
			c1.697,0,1.802-1.87,1.802-1.87s-9.963,0-13.512,0c-0.698,0-1.514,0.097-2.032-1.915c-0.192-0.745-0.641-3.006-0.641-3.006
			l16.921-0.022c0.744-0.026,1.377-0.589,1.462-1.352l0.578-5.264C28.44,7.046,28.403,6.75,27.931,6.281z M25.935,12.038H8.975
			L8.155,8.21h18.196L25.935,12.038z"/>
	</g>
</g>
<g>
</g>
<g>
</g>
<g>
</g>
<g>
</g>
<g>
</g>
<g>
</g>
<g>
</g>
<g>
</g>
<g>
</g>
<g>
</g>
<g>
</g>
<g>
</g>
<g>
</g>
<g>
</g>
<g>
</g>
</svg>
