<svg width="24" height="24" xmlns="http://www.w3.org/2000/svg">

 <g>
  <title>background</title>
  <rect fill="none" id="canvas_background" height="402" width="582" y="-1" x="-1"/>
 </g>
 <g>
  <title>Layer 1</title>
  <path fill="#ffffff" id="settings" d="m22.2,14.4l-1.2,-0.7c-1.3,-0.8 -1.3,-2.7 0,-3.5l1.2,-0.7c1,-0.6 1.3,-1.8 0.7,-2.7l-1,-1.7c-0.6,-1 -1.8,-1.3 -2.7,-0.7l-1.2,0.7c-1.3,0.8 -3,-0.2 -3,-1.7l0,-1.4c0,-1.1 -0.9,-2 -2,-2l-2,0c-1.1,0 -2,0.9 -2,2l0,1.3c0,1.5 -1.7,2.5 -3,1.7l-1.2,-0.6c-1,-0.6 -2.2,-0.2 -2.7,0.7l-1,1.7c-0.5,1 -0.2,2.2 0.7,2.8l1.2,0.7c1.3,0.7 1.3,2.7 0,3.4l-1.2,0.7c-1,0.6 -1.3,1.8 -0.7,2.7l1,1.7c0.6,1 1.8,1.3 2.7,0.7l1.2,-0.6c1.3,-0.8 3,0.2 3,1.7l0,1.4c0,1.1 0.9,2 2,2l2,0c1.1,0 2,-0.9 2,-2l0,-1.3c0,-1.5 1.7,-2.5 3,-1.7l1.2,0.7c1,0.6 2.2,0.2 2.7,-0.7l1,-1.7c0.5,-1.1 0.2,-2.3 -0.7,-2.9zm-10.2,1.6c-2.2,0 -4,-1.8 -4,-4c0,-2.2 1.8,-4 4,-4s4,1.8 4,4c0,2.2 -1.8,4 -4,4z"/>
 </g>
</svg>