<svg width="1792" height="1792" xmlns="http://www.w3.org/2000/svg">

 <g>
  <title>background</title>
  <rect fill="none" id="canvas_background" height="402" width="582" y="-1" x="-1"/>
 </g>
 <g>
  <title>Layer 1</title>
  <path fill="#ffffff" id="svg_1" d="m1490,1322q0,40 -28,68l-136,136q-28,28 -68,28t-68,-28l-294,-294l-294,294q-28,28 -68,28t-68,-28l-136,-136q-28,-28 -28,-68t28,-68l294,-294l-294,-294q-28,-28 -28,-68t28,-68l136,-136q28,-28 68,-28t68,28l294,294l294,-294q28,-28 68,-28t68,28l136,136q28,28 28,68t-28,68l-294,294l294,294q28,28 28,68z"/>
 </g>
</svg>