<svg width="500.00000000000006" height="500.00000000000006" xmlns="http://www.w3.org/2000/svg">

 <g>
  <title>background</title>
  <rect fill="none" id="canvas_background" height="402" width="582" y="-1" x="-1"/>
 </g>
 <g>
  <title>Layer 1</title>
  <path fill="#ffffff" id="svg_3" d="m325.8,195.2c-44.2,0 -89,-16.5 -89,-47.9s44.8,-47.9 89,-47.9s89,16.5 89,47.9s-44.8,47.9 -89,47.9zm0,-68.4c-40,0 -61.6,14.6 -61.6,20.5c0,6 21.6,20.5 61.6,20.5s61.6,-14.6 61.6,-20.5c0,-6 -21.6,-20.5 -61.6,-20.5z"/>
  <path fill="#ffffff" id="svg_5" d="m325.8,250c-44.2,0 -89,-16.5 -89,-47.9l0,-54.8l27.4,0l0,54.8c0,6 21.6,20.5 61.6,20.5s61.6,-14.6 61.6,-20.5l0,-54.8l27.4,0l0,54.8c0,31.4 -44.8,47.9 -89,47.9z"/>
  <path fill="#ffffff" id="svg_7" d="m325.8,304.7c-44.2,0 -89,-16.5 -89,-47.9l0,-54.8l27.4,0l0,54.8c0,6 21.6,20.5 61.6,20.5s61.6,-14.6 61.6,-20.5l0,-54.8l27.4,0l0,54.8c0,31.5 -44.8,47.9 -89,47.9z"/>
  <path fill="#ffffff" id="svg_9" d="m325.8,359.5c-44.2,0 -89,-16.5 -89,-47.9l0,-54.8l27.4,0l0,54.8c0,6 21.6,20.5 61.6,20.5s61.6,-14.6 61.6,-20.5l0,-54.8l27.4,0l0,54.8c0,31.4 -44.8,47.9 -89,47.9z"/>
  <path fill="#ffffff" id="svg_11" d="m175.2,291c-44.2,0 -89,-16.5 -89,-47.9s44.8,-47.9 89,-47.9s89,16.5 89,47.9s-44.8,47.9 -89,47.9zm0,-68.4c-40,0 -61.6,14.6 -61.6,20.5c0,6 21.6,20.5 61.6,20.5s61.6,-14.6 61.6,-20.5c0,-5.9 -21.6,-20.5 -61.6,-20.5z"/>
  <path fill="#ffffff" id="svg_13" d="m175.2,345.8c-44.2,0 -89,-16.5 -89,-47.9l0,-54.8l27.4,0l0,54.8c0,6 21.6,20.5 61.6,20.5s61.6,-14.6 61.6,-20.5l0,-54.8l27.4,0l0,54.8c0,31.4 -44.8,47.9 -89,47.9z"/>
  <path fill="#ffffff" id="svg_15" d="m175.2,400.5c-44.2,0 -89,-16.5 -89,-47.9l0,-54.8l27.4,0l0,54.8c0,6 21.6,20.5 61.6,20.5s61.6,-14.6 61.6,-20.5l0,-54.8l27.4,0l0,54.8c0,31.5 -44.8,47.9 -89,47.9z"/>
  <polyline stroke-linecap="round" id="svg_16" points="149.86796312638597,213.32158702143352 149.86796312638597,213.32158702143352 " stroke-width="1.5" stroke="#000" fill="none"/>
  <polyline stroke-linecap="round" id="svg_17" points="163.07218776906035,207.45304273580047 163.07218776906035,207.45304273580047 163.07218776906035,206.71947470009633 " stroke-width="1.5" stroke="#000" fill="none"/>
  <polyline stroke-linecap="round" id="svg_18" points="196.81631741145034,213.32158702143352 196.81631741145034,213.32158702143352 " stroke-width="1.5" stroke="#000" fill="none"/>
  <path d="m135.930176,208.186615c0,0 2.200699,0 7.335678,0c5.868546,0 13.93779,0 22.007034,0c7.335678,0 11.003525,0 13.93779,0c2.93428,0 7.335693,0 14.671371,0l6.602112,0l1.467133,0l1.467133,0" id="svg_19" stroke-width="1.5" stroke="#000" fill="#ffffff"/>
  <polyline stroke-linecap="round" id="svg_20" points="174.0757083046223,132.62910309397898 174.0757083046223,132.62910309397898 " stroke-width="1.5" stroke="#000" fill="none"/>
  <polyline stroke-linecap="round" id="svg_21" points="-92.20948865597751,150.96830398658227 -92.20948865597751,150.96830398658227 " stroke-width="1.5" stroke="#000" fill="none"/>
  <polyline stroke-linecap="round" id="svg_22" points="-186.10619722610636,57.07159541645343 -186.10619722610636,57.07159541645343 " stroke-width="1.5" stroke="#000" fill="none"/>
 </g>
</svg>