<svg width="1792" height="1792" xmlns="http://www.w3.org/2000/svg">

 <g>
  <title>background</title>
  <rect fill="none" id="canvas_background" height="402" width="582" y="-1" x="-1"/>
 </g>
 <g>
  <title>Layer 1</title>
  <path fill="#ffffff" id="svg_1" d="m1280,704q0,-26 -19,-45t-45,-19l-128,0l0,-128q0,-26 -19,-45t-45,-19t-45,19t-19,45l0,128l-128,0q-26,0 -45,19t-19,45t19,45t45,19l128,0l0,128q0,26 19,45t45,19t45,-19t19,-45l0,-128l128,0q26,0 45,-19t19,-45zm-576,832q0,53 -37.5,90.5t-90.5,37.5t-90.5,-37.5t-37.5,-90.5t37.5,-90.5t90.5,-37.5t90.5,37.5t37.5,90.5zm896,0q0,53 -37.5,90.5t-90.5,37.5t-90.5,-37.5t-37.5,-90.5t37.5,-90.5t90.5,-37.5t90.5,37.5t37.5,90.5zm128,-1088l0,512q0,24 -16,42.5t-41,21.5l-1044,122q1,7 4.5,21.5t6,26.5t2.5,22q0,16 -24,64l920,0q26,0 45,19t19,45t-19,45t-45,19l-1024,0q-26,0 -45,-19t-19,-45q0,-14 11,-39.5t29.5,-59.5t20.5,-38l-177,-823l-204,0q-26,0 -45,-19t-19,-45t19,-45t45,-19l256,0q16,0 28.5,6.5t20,15.5t13,24.5t7.5,26.5t5.5,29.5t4.5,25.5l1201,0q26,0 45,19t19,45z"/>
 </g>
</svg>