<svg width="100" height="100" xmlns="http://www.w3.org/2000/svg">

 <g>
  <title>background</title>
  <rect fill="none" id="canvas_background" height="402" width="582" y="-1" x="-1"/>
 </g>
 <g>
  <title>Layer 1</title>
  <rect id="svg_7" y="41" x="34" width="28" height="2" fill="#ffffff"/>
  <circle id="svg_8" r="2" fill="#ffffff" cy="42" cx="28.202"/>
  <rect id="svg_9" y="51" x="34" width="28" height="2" fill="#ffffff"/>
  <circle id="svg_10" r="2" fill="#ffffff" cy="52" cx="28.202"/>
  <circle id="svg_11" r="2" fill="#ffffff" cy="62" cx="28.202"/>
  <rect id="svg_12" y="71" x="34" width="16" height="2" fill="#ffffff"/>
  <circle id="svg_13" r="2" fill="#ffffff" cy="72" cx="28.202"/>
  <path id="svg_14" fill="#ffffff" d="m91.796,36.109l-2.828,-2.828l-1.768,1.768l-0.707,-0.707l-2.755,2.651l-9.738,9.637l0,-16.63c0,-6.617 -5.179,-12 -11.796,-12l-1.204,0l0,-1c0,-1.1 -0.696,-2 -1.796,-2l-11,0c0,-2.209 -1.791,-4 -4,-4s-4,1.791 -4,4l-11,0c-1.1,0 -2.204,0.9 -2.204,2l0,1l-0.796,0c-6.617,0 -12.204,5.383 -12.204,12l0,50c0,6.617 5.587,12 12.204,12l36,0c6.617,0 11.796,-5.383 11.796,-12l0,-24.886l13.098,-13.114l0.051,0l3.562,-3.476l-0.695,-0.678l1.78,-1.737zm-47.592,-23.109c1.104,0 2,0.896 2,2s-0.896,2 -2,2s-2,-0.896 -2,-2s0.896,-2 2,-2zm25.796,67c0,4.411 -3.385,8 -7.796,8l-36,0c-4.411,0 -8.204,-3.589 -8.204,-8l0,-50c0,-4.411 3.793,-8 8.204,-8l1,0l-1,4c0,1.1 0.9,2 2,2l32,0c1.1,0 2,-0.9 2,-2l-1,-4l1,0c4.411,0 7.796,3.589 7.796,8l0,20.63l-10.165,10.37l-25.835,0l0,2l23.835,0l-2.278,2.278l-1.768,3.889l-0.001,0l-1.768,3.89l7.677,-3.537l10.303,-10.406l0,20.886zm-11.767,-10.631l-2.916,1.326l-0.936,-0.935l1.326,-2.917l2.324,2.323l0.202,0.203zm29.143,-28.841l-2.828,-2.828l1.794,-1.793l-0.202,0.202l2.827,2.827l0.354,-0.354l0.001,0.001l-1.946,1.945z"/>
 </g>
</svg>