<?xml version="1.0"?>
<svg xmlns="http://www.w3.org/2000/svg" id="Capa_1" enable-background="new 0 0 512 512" height="512px" viewBox="0 0 512 512" width="512px" class=""><g><g><path d="m151 256c0 57.897 47.103 105 105 105s105-47.103 105-105c0-34.988-17.1-66.832-45-86.187v86.187c0 5.015-2.507 9.699-6.68 12.481l-45 30c-5.039 3.359-11.602 3.359-16.641 0l-45-30c-4.173-2.782-6.68-7.465-6.68-12.481v-86.187c-27.899 19.355-44.999 51.199-44.999 86.187z" data-original="#000000" class="active-path" data-old_color="#000000" fill="#FFFFFF"/><path d="m286 512v-124.365c-9.652 2.199-19.692 3.365-30 3.365s-20.348-1.166-30-3.365v124.365z" data-original="#000000" class="active-path" data-old_color="#000000" fill="#FFFFFF"/><path d="m500.576 196.432-47.017-11.541c-2.221-6.091-4.78-12.189-7.66-18.245l24.488-40.815c3.541-5.902 2.611-13.457-2.256-18.324l-63.64-63.64c-4.866-4.867-12.422-5.797-18.324-2.256l-40.814 24.489c-6.057-2.88-12.154-5.44-18.246-7.661l-11.54-47.015c-1.646-6.707-7.66-11.424-14.567-11.424h-90c-6.907 0-12.921 4.717-14.567 11.424l-11.54 47.015c-6.092 2.221-12.189 4.781-18.246 7.661l-40.814-24.489c-5.901-3.541-13.457-2.611-18.324 2.256l-63.64 63.64c-4.867 4.867-5.797 12.422-2.256 18.324l24.488 40.815c-2.88 6.056-5.439 12.154-7.66 18.245l-47.017 11.541c-6.707 1.647-11.424 7.661-11.424 14.568v90c0 6.907 4.717 12.921 11.424 14.568l47.017 11.541c2.221 6.091 4.78 12.189 7.66 18.245l-24.488 40.815c-3.541 5.902-2.611 13.457 2.256 18.324l63.64 63.64c4.867 4.867 12.422 5.797 18.324 2.256l40.814-24.489c6.057 2.88 12.154 5.44 18.246 7.661l11.107 45.252v-121.904c-44.413-22.129-75-68.011-75-120.909 0-27.368 8.182-53.744 23.66-76.275 15.099-21.978 36.088-38.877 60.697-48.868 4.624-1.878 9.881-1.332 14.02 1.456 4.141 2.787 6.623 7.452 6.623 12.443v103.217l30 20 30-20v-103.218c0-4.991 2.482-9.655 6.623-12.443 4.14-2.787 9.396-3.333 14.02-1.456 24.609 9.991 45.599 26.89 60.697 48.868 15.478 22.532 23.66 48.908 23.66 76.276 0 52.898-30.587 98.78-75 120.909v121.904l11.107-45.253c6.092-2.221 12.189-4.781 18.246-7.661l40.814 24.489c5.901 3.542 13.457 2.612 18.324-2.256l63.64-63.64c4.867-4.867 5.797-12.422 2.256-18.324l-24.488-40.815c2.88-6.056 5.439-12.154 7.66-18.245l47.017-11.541c6.707-1.646 11.424-7.66 11.424-14.567v-90c0-6.907-4.717-12.921-11.424-14.568z" data-original="#000000" class="active-path" data-old_color="#000000" fill="#FFFFFF"/></g></g> </svg>
