<svg width="48" height="48" xmlns="http://www.w3.org/2000/svg">

 <g>
  <title>background</title>
  <rect fill="none" id="canvas_background" height="402" width="582" y="-1" x="-1"/>
 </g>
 <g>
  <title>Layer 1</title>
  <circle id="svg_3" r="5.084" fill="#ffffff" cy="18.796" cx="24"/>
  <path id="svg_4" fill="#ffffff" d="m30.943,25.688l-13.887,0c-0.904,0 -1.638,0.733 -1.638,1.638l0,10.337c2.501,1.554 5.443,2.467 8.605,2.467c3.142,0 6.066,-0.902 8.559,-2.439l0,-10.365c0,-0.904 -0.734,-1.638 -1.639,-1.638z"/>
  <path id="svg_5" fill="#ffffff" d="m24,0c-13.255,0 -24,10.745 -24,24s10.745,24 24,24s24,-10.745 24,-24s-10.745,-24 -24,-24zm0.029,43.844c-11.023,0 -19.959,-8.936 -19.959,-19.959s8.936,-19.959 19.959,-19.959s19.959,8.936 19.959,19.959s-8.936,19.959 -19.959,19.959z"/>
 </g>
</svg>