<?xml version="1.0" encoding="iso-8859-1"?>
<!-- Generator: Adobe Illustrator 16.0.0, SVG Export Plug-In . SVG Version: 6.00 Build 0)  -->
<!DOCTYPE svg PUBLIC "-//W3C//DTD SVG 1.1//EN" "http://www.w3.org/Graphics/SVG/1.1/DTD/svg11.dtd">
<svg version="1.1" id="Capa_1" xmlns="http://www.w3.org/2000/svg" xmlns:xlink="http://www.w3.org/1999/xlink" x="0px" y="0px"
	 width="300.723px" height="300.723px" viewBox="0 0 300.723 300.723" style="enable-background:new 0 0 300.723 300.723; fill: #fff;"
	 xml:space="preserve">
<g>
	<g>
		<path d="M252.965,129.74c-0.346,0.472-0.66,0.982-1.036,1.43c-0.021-0.016-0.03-0.043-0.041-0.059
			c0.396-0.462,0.717-0.935,1.077-1.43c-5.424-1.836-11.131-3.291-17.042-3.875c5.911,0.531,11.618,1.869,17.042,3.707
			c2.736-3.732,4.423-8.173,4.423-13.144c0-6.104-2.453-10.271-6.403-14.335c-0.244,0.239-0.528,0.457-0.782,0.691
			c-4.032-3.796-9.395-6.198-15.36-6.198c6.332,0,10.739,1.341,14.843,5.558c3.809-3.659,5.108-9.63,5.108-15.11V57.478
			c0-13.766-13.67-23.349-24.867-23.349H23.425c-12.438,0-22.551,10.514-22.551,22.953c0,5.637,2.074,10.996,5.507,14.949
			c-3.433,3.956-5.507,9.214-5.507,14.846c0,6.104,2.455,12.974,6.406,17.039c5.761-5.538,14.32-7.389,21.061-7.389h-4.916
			c-3.831,0-6.952-3.968-6.952-7.8c0-3.826,3.121-7.8,6.952-7.8h184.569V65.329H23.425c-3.831,0-6.952-3.968-6.952-7.8
			s3.121-7.8,6.952-7.8h206.501c5.342,0,9.268,5.454,9.268,7.749v29.498c0,2.293-3.926,9.552-9.268,9.552H28.34
			c-6.563,0-14.825,3.052-20.576,8.32c-0.312-0.297-0.63-0.589-0.922-0.883C3.037,107.628,0,111,0,116.479v29.498
			c0,13.766,17.138,23.348,28.34,23.348h137.689c-3.656,5.2-5.702,17.448-5.702,27.269c0,38.705,31.488,70,70.198,70
			c38.709,0,70.197-31.59,70.197-70.294C300.723,165.436,280.69,139.129,252.965,129.74z M257.393,146.005
			c0,0.884-0.162,1.698-0.259,2.557c16.681,9.358,27.989,27.183,27.989,47.632c0,30.107-24.49,54.598-54.598,54.598
			s-54.599-24.09-54.599-54.197c0-10.104,2.808-22.068,7.606-27.269c3.57-5.199,8.272-10.399,13.817-15.6
			c9.212-10.399,20.688-11.729,33.175-11.729c3.509,0,6.937-0.287,10.262,0.353c-1.198-2.095-3.366-4.222-5.945-4.222
			c2.579,0,4.747,1.924,5.945,4.019c5.83,1.112,11.324,3.379,16.347,6.192c0.097-0.838,0.243-1.554,0.254-2.407
			C257.388,145.952,257.393,145.977,257.393,146.005z M236.781,133.721c6.87,0.759,13.411,2.699,19.443,5.441
			c0.021,0.066,0.066,0.13,0.086,0.201C250.248,136.603,243.682,134.539,236.781,133.721z M23.425,112.127
			c-0.993,0-1.98-0.124-2.958-0.307C21.444,111.949,22.412,112.127,23.425,112.127z M28.34,153.726
			c-5.342,0-12.741-5.453-12.741-7.749v-29.498c0-2.292,7.398-4.352,12.741-4.352h201.585h4.916c3.833,0,6.951,1.369,6.951,5.2
			c0,3.826-3.118,5.2-6.951,5.2H46.799v15.6h143.128c-5.5,5.2-10.399,10.4-14.574,15.599H28.34z M291.191,196.233
			c0-25.207-14.157-46.918-35.688-56.738c-0.011-0.023-0.447-0.038-0.452-0.059c21.556,9.828,36.14,31.514,36.14,56.757
			C291.191,196.203,291.191,196.219,291.191,196.233z"/>
		<path d="M236.151,189.15c-1.569-0.62-2.818-2.448-2.788-4.124l0.224-11.436c0.03-1.681,1.468-3.006,3.017-2.346
			c1.462,0.624,2.544,1.625,3.245,3.011c0.375,0.742,0.675,1.742,0.894,2.981c0.299,1.66,1.716,3.046,3.402,3.082l6.007,0.111
			c1.686,0.036,3.057-1.305,2.874-2.98c-0.599-5.332-2.833-8.978-6.551-11.857c-0.335-0.269-0.609-0.776-0.979-1.021
			c-2.204-1.665-5.038-2.925-8.587-3.585c-1.66-0.3-2.915-1.879-2.915-3.564v-0.112c0-1.681-1.31-3.066-2.539-3.092
			c-1.239-0.025-2.661,1.314-2.661,3.001v0.025c0,1.686-1.106,3.112-2.777,3.306c-1.681,0.183-2.889,0.437-3.945,0.757
			c-2.682,0.776-5.058,2.63-7.271,4.768c-0.904,0.854-1.604,3.25-2.301,3.25c-0.64,0-1.208,1.585-1.676,2.691
			c-0.979,2.315-1.498,4.499-1.554,7.354c-0.086,4.326,1.041,8.043,3.397,11.156c2.346,3.112,6.429,5.58,12.253,7.413l1.854,0.59
			c1.025,0.319,1.823,1.949,1.792,3.631l-0.269,13.548c-0.03,1.686-1.422,2.833-2.98,2.203c-1.895-0.771-3.24-1.868-4.037-3.295
			c-0.528-0.95-0.955-2.55-1.29-4.789c-0.244-1.665-1.717-3.047-3.402-3.087l-6.327-0.122c-1.686-0.03-3.103,1.31-3.017,2.991
			c0.366,6.911,2.813,11.953,7.354,15.137c2.417,1.666,5.9,2.915,10.43,3.748c1.655,0.305,2.986,1.838,2.955,3.524l-0.056,3.057
			c-0.03,1.686,0.939,3.067,2.174,3.093c1.233,0.025,2.26-1.326,2.29-3.007l0.061-3.153c0.031-1.686,1.433-3.107,3.093-3.356
			c3.509-0.522,6.632-1.6,9.369-3.225c5.738-3.382,8.684-8.947,8.835-16.671c0.112-5.854-1.858-10.436-5.915-13.736
			C245.703,193.319,241.809,191.354,236.151,189.15z M228.926,183.646c-0.031,1.686-1.239,2.681-2.62,2.041
			c-0.976-0.446-1.758-0.914-2.366-1.392c-1.899-1.538-2.824-3.595-2.773-6.175c0.046-2.355,0.727-4.209,2.037-5.55
			c0.756-0.777,1.751-1.325,2.96-1.66c1.625-0.442,2.985,1,2.955,2.681L228.926,183.646z M237.975,217.155
			c-0.64,0.441-1.482,0.807-2.539,1.076c-1.478,0.381-2.696-0.889-2.661-2.574l0.224-11.893c0.03-1.687,1.341-2.575,2.844-1.818
			c1.107,0.563,1.97,1.107,2.579,1.636c1.758,1.573,2.61,3.671,2.56,6.307C240.909,213.356,239.914,215.779,237.975,217.155z"/>
	</g>
</g>
<g>
</g>
<g>
</g>
<g>
</g>
<g>
</g>
<g>
</g>
<g>
</g>
<g>
</g>
<g>
</g>
<g>
</g>
<g>
</g>
<g>
</g>
<g>
</g>
<g>
</g>
<g>
</g>
<g>
</g>
</svg>
